<svg id="Layer_1" data-name="Layer 1" xmlns="http://www.w3.org/2000/svg" viewBox="0 0 80 80"><defs><style>.cls-1{fill:#fff;}</style></defs><title>social_icons</title><g id="PY5JsX"><path class="cls-1" d="M20,40c.05-2.7.07-5.39.15-8.09a13.08,13.08,0,0,1,1.73-6.61,10,10,0,0,1,7.05-4.78,35.84,35.84,0,0,1,5.48-.44c4-.06,7.94,0,11.91,0a19.3,19.3,0,0,1,6.22.79,10,10,0,0,1,7,8A30.84,30.84,0,0,1,60,34.41c.06,4,0,7.94,0,11.91a19.53,19.53,0,0,1-.79,6.17,10,10,0,0,1-8.06,7,31,31,0,0,1-5.53.45c-3.95.06-7.9,0-11.86,0a19.58,19.58,0,0,1-6.22-.79,10,10,0,0,1-7-8,36.38,36.38,0,0,1-.46-5.52c-.07-1.87,0-3.74,0-5.61Zm36.46-.3h-.08c0-1.58,0-3.16,0-4.73s-.1-3-.25-4.54a6.71,6.71,0,0,0-5.68-6.34A32.89,32.89,0,0,0,45,23.66c-3.32-.07-6.65-.06-10,0a38.26,38.26,0,0,0-5.14.35,6.53,6.53,0,0,0-5.66,5,11.43,11.43,0,0,0-.43,2.85c-.08,3.61-.14,7.23-.12,10.85,0,2.3.06,4.61.26,6.9a6.64,6.64,0,0,0,5.65,6.35,32.32,32.32,0,0,0,5.48.42c3.31.07,6.62,0,9.94,0,1.54,0,3.09-.1,4.62-.25a7.25,7.25,0,0,0,3.9-1.52,7.38,7.38,0,0,0,2.68-5.76C56.35,45.77,56.38,42.72,56.46,39.68Z"/><path class="cls-1" d="M50.28,40A10.26,10.26,0,1,1,40.12,29.74,10.22,10.22,0,0,1,50.28,40ZM40,33.34A6.66,6.66,0,1,0,46.68,40,6.7,6.7,0,0,0,40,33.34Z"/><path class="cls-1" d="M50.7,26.94a2.35,2.35,0,0,1,2.38,2.42,2.4,2.4,0,0,1-2.39,2.39,2.41,2.41,0,1,1,0-4.81Z"/></g></svg>