<svg id="Layer_1" data-name="Layer 1" xmlns="http://www.w3.org/2000/svg" viewBox="0 0 80 80"><defs><style>.cls-1{fill:#fff;}</style></defs><title>social_icons</title><path class="cls-1" d="M60,27.6h0M47.69,23.75a8.22,8.22,0,0,0-8,10.07,23.28,23.28,0,0,1-16.91-8.57,8.22,8.22,0,0,0,2.53,11,8.16,8.16,0,0,1-3.71-1v.1a8.22,8.22,0,0,0,6.58,8,8.1,8.1,0,0,1-2.16.29,8,8,0,0,1-1.55-.15,8.23,8.23,0,0,0,7.67,5.7A16.48,16.48,0,0,1,22,52.68a18.1,18.1,0,0,1-2-.11,23.22,23.22,0,0,0,12.58,3.68c15.1,0,23.35-12.5,23.35-23.35,0-.35,0-.7,0-1.06A16.66,16.66,0,0,0,60,27.6a16.51,16.51,0,0,1-4.71,1.29,8.28,8.28,0,0,0,3.61-4.54,16.61,16.61,0,0,1-5.21,2,8.2,8.2,0,0,0-6-2.59"/></svg>