<svg id="Layer_1" data-name="Layer 1" xmlns="http://www.w3.org/2000/svg" viewBox="0 0 80 80"><defs><style>.cls-1,.cls-2{fill:#fff;}.cls-1{fill-rule:evenodd;opacity:0.12;}</style></defs><title>social_icons</title><path id="The_Sharpness" data-name="The Sharpness" class="cls-1" d="M35.87,34l9.48,6.33,1.33-.69Z"/><g id="Lozenge"><path class="cls-2" d="M59.6,32s-.39-2.75-1.59-4a5.72,5.72,0,0,0-4-1.69c-5.6-.41-14-.41-14-.41h0s-8.4,0-14,.41A5.72,5.72,0,0,0,22,28c-1.2,1.22-1.59,4-1.59,4a60.61,60.61,0,0,0-.4,6.48v3A60.61,60.61,0,0,0,20.4,48s.39,2.75,1.59,4c1.52,1.59,3.52,1.54,4.41,1.7,3.2.31,13.6.41,13.6.41s8.4,0,14-.42A5.72,5.72,0,0,0,58,52c1.2-1.22,1.59-4,1.59-4a60.61,60.61,0,0,0,.4-6.48v-3A60.61,60.61,0,0,0,59.6,32ZM35.87,45.19V34l10.81,5.64Z"/></g></svg>